<?xml version="1.0" encoding="UTF-8" standalone="no"?>
<!DOCTYPE svg PUBLIC "-//W3C//DTD SVG 1.1//EN"
 "http://www.w3.org/Graphics/SVG/1.1/DTD/svg11.dtd">
<!-- Generated by graphviz version 2.46.0 (20210118.1747)
 -->
<!-- Title: dependency&#45;cruiser output Pages: 1 -->
<svg width="321pt" height="696pt"
 viewBox="0.00 0.00 320.50 696.00" xmlns="http://www.w3.org/2000/svg" xmlns:xlink="http://www.w3.org/1999/xlink">
<g id="graph0" class="graph" transform="scale(1 1) rotate(0) translate(4 692)">
<title>dependency&#45;cruiser output</title>
<polygon fill="white" stroke="transparent" points="-4,4 -4,-692 316.5,-692 316.5,4 -4,4"/>
<g id="clust1" class="cluster">
<title>cluster_node_modules</title>
<path fill="#ffffff" stroke="black" stroke-width="2" d="M192,-162C192,-162 286,-162 286,-162 292,-162 298,-168 298,-174 298,-174 298,-364 298,-364 298,-370 292,-376 286,-376 286,-376 192,-376 192,-376 186,-376 180,-370 180,-364 180,-364 180,-174 180,-174 180,-168 186,-162 192,-162"/>
<text text-anchor="middle" x="239" y="-364.8" font-family="Helvetica,sans-Serif" font-weight="bold" font-size="9.00">node_modules</text>
</g>
<g id="clust2" class="cluster">
<title>cluster_node_modules/@sushiswap</title>
<path fill="#ffffff" stroke="black" stroke-width="2" d="M200,-230C200,-230 278,-230 278,-230 284,-230 290,-236 290,-242 290,-242 290,-338 290,-338 290,-344 284,-350 278,-350 278,-350 200,-350 200,-350 194,-350 188,-344 188,-338 188,-338 188,-242 188,-242 188,-236 194,-230 200,-230"/>
<text text-anchor="middle" x="239" y="-338.8" font-family="Helvetica,sans-Serif" font-weight="bold" font-size="9.00">@sushiswap</text>
</g>
<g id="clust3" class="cluster">
<title>cluster_node_modules/@sushiswap/sdk</title>
<path fill="#ffffff" stroke="black" stroke-width="2" d="M208,-238C208,-238 270,-238 270,-238 276,-238 282,-244 282,-250 282,-250 282,-312 282,-312 282,-318 276,-324 270,-324 270,-324 208,-324 208,-324 202,-324 196,-318 196,-312 196,-312 196,-250 196,-250 196,-244 202,-238 208,-238"/>
<text text-anchor="middle" x="239" y="-312.8" font-family="Helvetica,sans-Serif" font-weight="bold" font-size="9.00">sdk</text>
</g>
<g id="clust4" class="cluster">
<title>cluster_node_modules/@sushiswap/sdk/dist</title>
<path fill="#ffffff" stroke="black" stroke-width="2" d="M216,-246C216,-246 262,-246 262,-246 268,-246 274,-252 274,-258 274,-258 274,-286 274,-286 274,-292 268,-298 262,-298 262,-298 216,-298 216,-298 210,-298 204,-292 204,-286 204,-286 204,-258 204,-258 204,-252 210,-246 216,-246"/>
<text text-anchor="middle" x="239" y="-286.8" font-family="Helvetica,sans-Serif" font-weight="bold" font-size="9.00">dist</text>
</g>
<g id="clust5" class="cluster">
<title>cluster_node_modules/react</title>
<path fill="#ffffff" stroke="black" stroke-width="2" d="M216,-170C216,-170 262,-170 262,-170 268,-170 274,-176 274,-182 274,-182 274,-210 274,-210 274,-216 268,-222 262,-222 262,-222 216,-222 216,-222 210,-222 204,-216 204,-210 204,-210 204,-182 204,-182 204,-176 210,-170 216,-170"/>
<text text-anchor="middle" x="239" y="-210.8" font-family="Helvetica,sans-Serif" font-weight="bold" font-size="9.00">react</text>
</g>
<g id="clust6" class="cluster">
<title>cluster_src</title>
<path fill="#ffffff" stroke="black" stroke-width="2" d="M20,-384C20,-384 292.5,-384 292.5,-384 298.5,-384 304.5,-390 304.5,-396 304.5,-396 304.5,-668 304.5,-668 304.5,-674 298.5,-680 292.5,-680 292.5,-680 20,-680 20,-680 14,-680 8,-674 8,-668 8,-668 8,-396 8,-396 8,-390 14,-384 20,-384"/>
<text text-anchor="middle" x="156.25" y="-668.8" font-family="Helvetica,sans-Serif" font-weight="bold" font-size="9.00">src</text>
</g>
<g id="clust7" class="cluster">
<title>cluster_src/constants</title>
<path fill="#ffffff" stroke="black" stroke-width="2" d="M216,-482C216,-482 262,-482 262,-482 268,-482 274,-488 274,-494 274,-494 274,-522 274,-522 274,-528 268,-534 262,-534 262,-534 216,-534 216,-534 210,-534 204,-528 204,-522 204,-522 204,-494 204,-494 204,-488 210,-482 216,-482"/>
<text text-anchor="middle" x="239" y="-522.8" font-family="Helvetica,sans-Serif" font-weight="bold" font-size="9.00">constants</text>
</g>
<g id="clust8" class="cluster">
<title>cluster_src/data</title>
<path fill="#ffffff" stroke="black" stroke-width="2" d="M210.5,-542C210.5,-542 267.5,-542 267.5,-542 273.5,-542 279.5,-548 279.5,-554 279.5,-554 279.5,-582 279.5,-582 279.5,-588 273.5,-594 267.5,-594 267.5,-594 210.5,-594 210.5,-594 204.5,-594 198.5,-588 198.5,-582 198.5,-582 198.5,-554 198.5,-554 198.5,-548 204.5,-542 210.5,-542"/>
<text text-anchor="middle" x="239" y="-582.8" font-family="Helvetica,sans-Serif" font-weight="bold" font-size="9.00">data</text>
</g>
<g id="clust9" class="cluster">
<title>cluster_src/hooks</title>
<path fill="#ffffff" stroke="black" stroke-width="2" d="M122,-392C122,-392 262.5,-392 262.5,-392 268.5,-392 274.5,-398 274.5,-404 274.5,-404 274.5,-462 274.5,-462 274.5,-468 268.5,-474 262.5,-474 262.5,-474 122,-474 122,-474 116,-474 110,-468 110,-462 110,-462 110,-404 110,-404 110,-398 116,-392 122,-392"/>
<text text-anchor="middle" x="192.25" y="-462.8" font-family="Helvetica,sans-Serif" font-weight="bold" font-size="9.00">hooks</text>
</g>
<g id="clust12" class="cluster">
<title>cluster_src/utils</title>
<path fill="#ffffff" stroke="black" stroke-width="2" d="M193.5,-602C193.5,-602 284.5,-602 284.5,-602 290.5,-602 296.5,-608 296.5,-614 296.5,-614 296.5,-642 296.5,-642 296.5,-648 290.5,-654 284.5,-654 284.5,-654 193.5,-654 193.5,-654 187.5,-654 181.5,-648 181.5,-642 181.5,-642 181.5,-614 181.5,-614 181.5,-608 187.5,-602 193.5,-602"/>
<text text-anchor="middle" x="239" y="-642.8" font-family="Helvetica,sans-Serif" font-weight="bold" font-size="9.00">utils</text>
</g>
<g id="clust10" class="cluster">
<title>cluster_src/state</title>
<path fill="#ffffff" stroke="black" stroke-width="2" d="M28,-392C28,-392 90,-392 90,-392 96,-392 102,-398 102,-404 102,-404 102,-466 102,-466 102,-472 96,-478 90,-478 90,-478 28,-478 28,-478 22,-478 16,-472 16,-466 16,-466 16,-404 16,-404 16,-398 22,-392 28,-392"/>
<text text-anchor="middle" x="59" y="-466.8" font-family="Helvetica,sans-Serif" font-weight="bold" font-size="9.00">state</text>
</g>
<g id="clust11" class="cluster">
<title>cluster_src/state/swap</title>
<path fill="#ffffff" stroke="black" stroke-width="2" d="M36,-400C36,-400 82,-400 82,-400 88,-400 94,-406 94,-412 94,-412 94,-440 94,-440 94,-446 88,-452 82,-452 82,-452 36,-452 36,-452 30,-452 24,-446 24,-440 24,-440 24,-412 24,-412 24,-406 30,-400 36,-400"/>
<text text-anchor="middle" x="59" y="-440.8" font-family="Helvetica,sans-Serif" font-weight="bold" font-size="9.00">swap</text>
</g>
<g id="clust13" class="cluster">
<title>cluster_state</title>
<path fill="#ffffff" stroke="black" stroke-width="2" d="M208,-68C208,-68 270,-68 270,-68 276,-68 282,-74 282,-80 282,-80 282,-142 282,-142 282,-148 276,-154 270,-154 270,-154 208,-154 208,-154 202,-154 196,-148 196,-142 196,-142 196,-80 196,-80 196,-74 202,-68 208,-68"/>
<text text-anchor="middle" x="239" y="-142.8" font-family="Helvetica,sans-Serif" font-weight="bold" font-size="9.00">state</text>
</g>
<g id="clust14" class="cluster">
<title>cluster_state/user</title>
<path fill="#ffffff" stroke="black" stroke-width="2" d="M216,-76C216,-76 262,-76 262,-76 268,-76 274,-82 274,-88 274,-88 274,-116 274,-116 274,-122 268,-128 262,-128 262,-128 216,-128 216,-128 210,-128 204,-122 204,-116 204,-116 204,-88 204,-88 204,-82 210,-76 216,-76"/>
<text text-anchor="middle" x="239" y="-116.8" font-family="Helvetica,sans-Serif" font-weight="bold" font-size="9.00">user</text>
</g>
<g id="clust15" class="cluster">
<title>cluster_utils</title>
<path fill="#ffffff" stroke="black" stroke-width="2" d="M216,-8C216,-8 262,-8 262,-8 268,-8 274,-14 274,-20 274,-20 274,-48 274,-48 274,-54 268,-60 262,-60 262,-60 216,-60 216,-60 210,-60 204,-54 204,-48 204,-48 204,-20 204,-20 204,-14 210,-8 216,-8"/>
<text text-anchor="middle" x="239" y="-48.8" font-family="Helvetica,sans-Serif" font-weight="bold" font-size="9.00">utils</text>
</g>
<!-- node_modules/@sushiswap/sdk/dist/index.js -->
<g id="node1" class="node">
<title>node_modules/@sushiswap/sdk/dist/index.js</title>
<g id="a_node1"><a xlink:href="node_modules/@sushiswap/sdk/dist/index.js" xlink:title="index.js">
<path fill="#c40b0a" fill-opacity="0.101961" stroke="black" d="M260,-272C260,-272 218,-272 218,-272 215,-272 212,-269 212,-266 212,-266 212,-260 212,-260 212,-257 215,-254 218,-254 218,-254 260,-254 260,-254 263,-254 266,-257 266,-260 266,-260 266,-266 266,-266 266,-269 263,-272 260,-272"/>
<text text-anchor="middle" x="239" y="-260.8" font-family="Helvetica,sans-Serif" font-size="9.00" fill="#c40b0a">index.js</text>
</a>
</g>
</g>
<!-- node_modules/react/index.js -->
<g id="node2" class="node">
<title>node_modules/react/index.js</title>
<g id="a_node2"><a xlink:href="node_modules/react/index.js" xlink:title="index.js">
<path fill="#c40b0a" fill-opacity="0.101961" stroke="black" d="M260,-196C260,-196 218,-196 218,-196 215,-196 212,-193 212,-190 212,-190 212,-184 212,-184 212,-181 215,-178 218,-178 218,-178 260,-178 260,-178 263,-178 266,-181 266,-184 266,-184 266,-190 266,-190 266,-193 263,-196 260,-196"/>
<text text-anchor="middle" x="239" y="-184.8" font-family="Helvetica,sans-Serif" font-size="9.00" fill="#c40b0a">index.js</text>
</a>
</g>
</g>
<!-- src/constants/index.ts -->
<g id="node3" class="node">
<title>src/constants/index.ts</title>
<g id="a_node3"><a xlink:href="src/constants/index.ts" xlink:title="index.ts">
<path fill="#ddfeff" stroke="black" d="M260,-508C260,-508 218,-508 218,-508 215,-508 212,-505 212,-502 212,-502 212,-496 212,-496 212,-493 215,-490 218,-490 218,-490 260,-490 260,-490 263,-490 266,-493 266,-496 266,-496 266,-502 266,-502 266,-505 263,-508 260,-508"/>
<text text-anchor="middle" x="239" y="-496.8" font-family="Helvetica,sans-Serif" font-size="9.00">index.ts</text>
</a>
</g>
</g>
<!-- src/data/Reserves.ts -->
<g id="node4" class="node">
<title>src/data/Reserves.ts</title>
<g id="a_node4"><a xlink:href="src/data/Reserves.ts" xlink:title="Reserves.ts">
<path fill="#ddfeff" stroke="black" d="M265.5,-568C265.5,-568 212.5,-568 212.5,-568 209.5,-568 206.5,-565 206.5,-562 206.5,-562 206.5,-556 206.5,-556 206.5,-553 209.5,-550 212.5,-550 212.5,-550 265.5,-550 265.5,-550 268.5,-550 271.5,-553 271.5,-556 271.5,-556 271.5,-562 271.5,-562 271.5,-565 268.5,-568 265.5,-568"/>
<text text-anchor="middle" x="239" y="-556.8" font-family="Helvetica,sans-Serif" font-size="9.00">Reserves.ts</text>
</a>
</g>
</g>
<!-- src/hooks/Tokens.ts -->
<g id="node5" class="node">
<title>src/hooks/Tokens.ts</title>
<g id="a_node5"><a xlink:href="src/hooks/Tokens.ts" xlink:title="Tokens.ts">
<path fill="#ddfeff" stroke="black" d="M260.5,-448C260.5,-448 217.5,-448 217.5,-448 214.5,-448 211.5,-445 211.5,-442 211.5,-442 211.5,-436 211.5,-436 211.5,-433 214.5,-430 217.5,-430 217.5,-430 260.5,-430 260.5,-430 263.5,-430 266.5,-433 266.5,-436 266.5,-436 266.5,-442 266.5,-442 266.5,-445 263.5,-448 260.5,-448"/>
<text text-anchor="middle" x="239" y="-436.8" font-family="Helvetica,sans-Serif" font-size="9.00">Tokens.ts</text>
</a>
</g>
</g>
<!-- src/hooks/Trades.ts -->
<g id="node6" class="node">
<title>src/hooks/Trades.ts</title>
<g id="a_node6"><a xlink:href="src/hooks/Trades.ts" xlink:title="Trades.ts">
<path fill="#ddfeff" stroke="black" d="M166,-422C166,-422 124,-422 124,-422 121,-422 118,-419 118,-416 118,-416 118,-410 118,-410 118,-407 121,-404 124,-404 124,-404 166,-404 166,-404 169,-404 172,-407 172,-410 172,-410 172,-416 172,-416 172,-419 169,-422 166,-422"/>
<text text-anchor="middle" x="145" y="-410.8" font-family="Helvetica,sans-Serif" font-size="9.00">Trades.ts</text>
</a>
</g>
</g>
<!-- src/hooks/Trades.ts&#45;&gt;node_modules/@sushiswap/sdk/dist/index.js -->
<g id="edge6" class="edge">
<title>src/hooks/Trades.ts&#45;&gt;node_modules/@sushiswap/sdk/dist/index.js</title>
<path fill="none" stroke="#000000" stroke-opacity="0.200000" d="M151.76,-403.62C167.31,-378.26 210.27,-308.21 229.04,-277.61"/>
<polygon fill="#000000" fill-opacity="0.200000" stroke="#000000" stroke-opacity="0.200000" points="230.9,-278.59 232.25,-272.38 227.32,-276.4 230.9,-278.59"/>
</g>
<!-- src/hooks/Trades.ts&#45;&gt;node_modules/react/index.js -->
<g id="edge7" class="edge">
<title>src/hooks/Trades.ts&#45;&gt;node_modules/react/index.js</title>
<path fill="none" stroke="#000000" stroke-opacity="0.200000" d="M145.96,-403.88C146.23,-377.33 149.69,-298.46 180,-243 189.6,-225.43 206.58,-210.02 219.69,-199.83"/>
<polygon fill="#000000" fill-opacity="0.200000" stroke="#000000" stroke-opacity="0.200000" points="221.16,-201.35 224.68,-196.06 218.63,-198 221.16,-201.35"/>
</g>
<!-- src/hooks/Trades.ts&#45;&gt;src/constants/index.ts -->
<g id="edge1" class="edge">
<title>src/hooks/Trades.ts&#45;&gt;src/constants/index.ts</title>
<path fill="none" stroke="#000000" stroke-width="2" stroke-opacity="0.200000" d="M148.57,-422.16C152.88,-435.9 162.82,-461.86 180,-477 187.36,-483.48 196.82,-488.14 205.95,-491.45"/>
<polygon fill="#000000" fill-opacity="0.200000" stroke="#000000" stroke-width="2" stroke-opacity="0.200000" points="205.53,-493.52 211.89,-493.43 206.86,-489.54 205.53,-493.52"/>
</g>
<!-- src/hooks/Trades.ts&#45;&gt;src/data/Reserves.ts -->
<g id="edge2" class="edge">
<title>src/hooks/Trades.ts&#45;&gt;src/data/Reserves.ts</title>
<path fill="none" stroke="#000000" stroke-width="2" stroke-opacity="0.200000" d="M145.85,-422.1C145.96,-444.57 149.36,-503.31 180,-537 185.48,-543.03 192.8,-547.42 200.38,-550.61"/>
<polygon fill="#000000" fill-opacity="0.200000" stroke="#000000" stroke-width="2" stroke-opacity="0.200000" points="199.85,-552.65 206.2,-552.82 201.34,-548.73 199.85,-552.65"/>
</g>
<!-- src/hooks/Trades.ts&#45;&gt;src/hooks/Tokens.ts -->
<g id="edge5" class="edge">
<title>src/hooks/Trades.ts&#45;&gt;src/hooks/Tokens.ts</title>
<path fill="none" stroke="#000000" stroke-width="2" stroke-opacity="0.200000" d="M172.31,-421.68C174.9,-422.49 177.5,-423.27 180,-424 188.12,-426.36 196.93,-428.73 205.17,-430.87"/>
<polygon fill="#000000" fill-opacity="0.200000" stroke="#000000" stroke-width="2" stroke-opacity="0.200000" points="205.01,-433 211.34,-432.46 206.06,-428.93 205.01,-433"/>
</g>
<!-- src/utils/wrappedCurrency.ts -->
<g id="node7" class="node">
<title>src/utils/wrappedCurrency.ts</title>
<g id="a_node7"><a xlink:href="src/utils/wrappedCurrency.ts" xlink:title="wrappedCurrency.ts">
<path fill="#ddfeff" stroke="black" d="M282.5,-628C282.5,-628 195.5,-628 195.5,-628 192.5,-628 189.5,-625 189.5,-622 189.5,-622 189.5,-616 189.5,-616 189.5,-613 192.5,-610 195.5,-610 195.5,-610 282.5,-610 282.5,-610 285.5,-610 288.5,-613 288.5,-616 288.5,-616 288.5,-622 288.5,-622 288.5,-625 285.5,-628 282.5,-628"/>
<text text-anchor="middle" x="239" y="-616.8" font-family="Helvetica,sans-Serif" font-size="9.00">wrappedCurrency.ts</text>
</a>
</g>
</g>
<!-- src/hooks/Trades.ts&#45;&gt;src/utils/wrappedCurrency.ts -->
<g id="edge3" class="edge">
<title>src/hooks/Trades.ts&#45;&gt;src/utils/wrappedCurrency.ts</title>
<path fill="none" stroke="#000000" stroke-width="2" stroke-opacity="0.200000" d="M146.53,-422.16C148.61,-455.5 157.31,-569.82 180,-597 183.37,-601.04 187.57,-604.34 192.16,-607.04"/>
<polygon fill="#000000" fill-opacity="0.200000" stroke="#000000" stroke-width="2" stroke-opacity="0.200000" points="191.4,-609.01 197.69,-609.93 193.35,-605.29 191.4,-609.01"/>
</g>
<!-- src/hooks/index.ts -->
<g id="node8" class="node">
<title>src/hooks/index.ts</title>
<g id="a_node8"><a xlink:href="src/hooks/index.ts" xlink:title="index.ts">
<path fill="#ddfeff" stroke="black" d="M260,-418C260,-418 218,-418 218,-418 215,-418 212,-415 212,-412 212,-412 212,-406 212,-406 212,-403 215,-400 218,-400 218,-400 260,-400 260,-400 263,-400 266,-403 266,-406 266,-406 266,-412 266,-412 266,-415 263,-418 260,-418"/>
<text text-anchor="middle" x="239" y="-406.8" font-family="Helvetica,sans-Serif" font-size="9.00">index.ts</text>
</a>
</g>
</g>
<!-- src/hooks/Trades.ts&#45;&gt;src/hooks/index.ts -->
<g id="edge4" class="edge">
<title>src/hooks/Trades.ts&#45;&gt;src/hooks/index.ts</title>
<path fill="none" stroke="#000000" stroke-width="2" stroke-opacity="0.200000" d="M172.12,-411.86C182.51,-411.41 194.58,-410.89 205.52,-410.41"/>
<polygon fill="#000000" fill-opacity="0.200000" stroke="#000000" stroke-width="2" stroke-opacity="0.200000" points="205.91,-412.5 211.82,-410.14 205.73,-408.3 205.91,-412.5"/>
</g>
<!-- state/user/hooks -->
<g id="node9" class="node">
<title>state/user/hooks</title>
<path fill="#ffffcc" stroke="red" d="M260,-102C260,-102 218,-102 218,-102 215,-102 212,-99 212,-96 212,-96 212,-90 212,-90 212,-87 215,-84 218,-84 218,-84 260,-84 260,-84 263,-84 266,-87 266,-90 266,-90 266,-96 266,-96 266,-99 263,-102 260,-102"/>
<text text-anchor="middle" x="239" y="-90.8" font-family="Helvetica,sans-Serif" font-size="9.00" fill="red">hooks</text>
</g>
<!-- src/hooks/Trades.ts&#45;&gt;state/user/hooks -->
<g id="edge8" class="edge">
<title>src/hooks/Trades.ts&#45;&gt;state/user/hooks</title>
<path fill="none" stroke="#000000" stroke-width="2" stroke-opacity="0.200000" d="M145.58,-403.61C144.44,-370 143.48,-253.13 180,-167 190.08,-143.24 209.83,-120.6 223.47,-106.76"/>
<polygon fill="#000000" fill-opacity="0.200000" stroke="#000000" stroke-width="2" stroke-opacity="0.200000" points="225.06,-108.14 227.83,-102.41 222.1,-105.16 225.06,-108.14"/>
</g>
<!-- utils/trades -->
<g id="node10" class="node">
<title>utils/trades</title>
<path fill="#ffffcc" stroke="red" d="M260,-34C260,-34 218,-34 218,-34 215,-34 212,-31 212,-28 212,-28 212,-22 212,-22 212,-19 215,-16 218,-16 218,-16 260,-16 260,-16 263,-16 266,-19 266,-22 266,-22 266,-28 266,-28 266,-31 263,-34 260,-34"/>
<text text-anchor="middle" x="239" y="-22.8" font-family="Helvetica,sans-Serif" font-size="9.00" fill="red">trades</text>
</g>
<!-- src/hooks/Trades.ts&#45;&gt;utils/trades -->
<g id="edge9" class="edge">
<title>src/hooks/Trades.ts&#45;&gt;utils/trades</title>
<path fill="none" stroke="#000000" stroke-width="2" stroke-opacity="0.200000" d="M145.99,-403.83C146.07,-355.75 148.2,-132.68 180,-73 188.01,-57.96 202.91,-45.79 215.6,-37.47"/>
<polygon fill="#000000" fill-opacity="0.200000" stroke="#000000" stroke-width="2" stroke-opacity="0.200000" points="216.92,-39.12 220.87,-34.14 214.68,-35.56 216.92,-39.12"/>
</g>
<!-- src/state/swap/hooks.ts -->
<g id="node11" class="node">
<title>src/state/swap/hooks.ts</title>
<g id="a_node11"><a xlink:href="src/state/swap/hooks.ts" xlink:title="hooks.ts">
<path fill="#ddfeff" stroke="black" d="M80,-426C80,-426 38,-426 38,-426 35,-426 32,-423 32,-420 32,-420 32,-414 32,-414 32,-411 35,-408 38,-408 38,-408 80,-408 80,-408 83,-408 86,-411 86,-414 86,-414 86,-420 86,-420 86,-423 83,-426 80,-426"/>
<text text-anchor="middle" x="59" y="-414.8" font-family="Helvetica,sans-Serif" font-size="9.00">hooks.ts</text>
</a>
</g>
</g>
<!-- src/state/swap/hooks.ts&#45;&gt;src/hooks/Trades.ts -->
<g id="edge10" class="edge">
<title>src/state/swap/hooks.ts&#45;&gt;src/hooks/Trades.ts</title>
<path fill="none" stroke="#000000" stroke-width="2" stroke-opacity="0.200000" d="M86.12,-415.76C94.18,-415.37 103.15,-414.95 111.58,-414.54"/>
<polygon fill="#000000" fill-opacity="0.200000" stroke="#000000" stroke-width="2" stroke-opacity="0.200000" points="112.01,-416.63 117.9,-414.24 111.81,-412.43 112.01,-416.63"/>
</g>
</g>
</svg>
